<?xml version="1.0" standalone="no"?>
<!DOCTYPE svg PUBLIC "-//W3C//DTD SVG 20010904//EN"
 "http://www.w3.org/TR/2001/REC-SVG-20010904/DTD/svg10.dtd">
<svg version="1.0" xmlns="http://www.w3.org/2000/svg"
 width="700.000000pt" height="700.000000pt" viewBox="0 0 700.000000 700.000000"
 preserveAspectRatio="xMidYMid meet">
<metadata>
Created by potrace 1.11, written by Peter Selinger 2001-2013
</metadata>
<g transform="translate(0.000000,700.000000) scale(0.100000,-0.100000)"
fill="#000000" stroke="none">
<path d="M2235 6951 c24 -173 154 -570 245 -751 17 -33 30 -61 30 -64 0 -2
-17 -10 -37 -16 -139 -45 -492 -208 -581 -268 -15 -11 -58 -39 -97 -63 -123
-76 -266 -187 -414 -320 -351 -315 -649 -747 -810 -1174 -13 -33 -27 -69 -32
-80 -24 -53 -110 -360 -123 -442 -8 -46 -15 -84 -20 -108 -3 -19 -11 -73 -21
-155 -24 -195 -25 -594 -1 -726 2 -11 7 -46 11 -79 4 -32 9 -68 11 -80 45
-233 115 -492 163 -600 8 -18 22 -52 26 -65 17 -55 176 -373 213 -427 10 -15
45 -68 77 -118 154 -239 360 -470 611 -686 158 -136 407 -296 642 -413 260
-130 639 -247 912 -282 25 -3 52 -7 60 -9 100 -26 646 -26 787 -1 10 2 41 7
68 10 81 12 116 17 139 22 11 3 32 7 46 10 825 166 1572 688 2031 1419 157
249 334 666 384 901 2 10 10 51 19 89 101 472 94 954 -19 1425 -24 99 -75 271
-94 315 -5 11 -26 63 -46 115 -93 233 -218 456 -384 685 -73 99 -82 111 -193
234 -314 352 -742 653 -1158 814 -52 20 -116 44 -141 54 l-46 18 43 92 c96
205 209 561 230 721 7 52 6 53 -17 48 -13 -3 -55 -12 -94 -20 -359 -75 -708
-219 -1033 -427 l-123 -79 -67 44 c-291 189 -557 314 -867 407 -55 16 -116 32
-135 35 -19 3 -38 8 -42 10 -4 3 -42 11 -84 18 l-76 13 7 -46z m487 -382 c11
-6 28 -12 39 -14 36 -7 322 -152 414 -210 50 -31 143 -95 209 -142 l119 -85
86 61 c304 215 472 312 681 390 58 22 106 38 108 36 4 -4 -59 -163 -101 -255
-56 -122 -96 -206 -102 -212 -3 -3 -23 -42 -45 -86 l-39 -81 186 -61 c220 -73
453 -166 453 -181 0 -14 -225 -104 -427 -171 l-211 -70 102 -207 c94 -191 192
-418 184 -426 -5 -6 -186 69 -291 119 -175 84 -317 171 -526 321 l-63 46 -37
-25 c-20 -14 -58 -41 -86 -61 -221 -158 -477 -299 -682 -374 l-82 -30 19 52
c31 89 88 215 178 396 48 95 88 177 90 181 2 4 -55 27 -125 50 -245 81 -533
194 -522 204 2 2 38 18 79 36 41 17 93 40 115 49 22 10 133 48 247 86 179 58
206 69 199 84 -5 9 -19 39 -31 66 -12 28 -49 106 -82 175 -56 117 -138 308
-152 356 -7 22 -6 22 35 7 23 -7 51 -19 61 -24z"/>
</g>
</svg>
